<?xml version="1.0" encoding="UTF-8"?><svg id="_層_2" xmlns="http://www.w3.org/2000/svg" viewBox="0 0 151.75 101.21"><g id="_層_2-2"><path d="M141.63,93.47c3.4-.89,7.89-.44,10.05,2.67,.07,.12,.08,.26,.04,.39-1.6,4.49-10.72,2.79-14.49,2.87-3.47-.06-7.53,.53-10-2.59-3.33-4.14-2.77-10.06-3.25-14.99-.86-13.02-1.54-26.29-6.68-38.4l-1-2.19c-1.78-3.83-6.26-9.25-2.18-13.29,1.49-1.32,2.98-1.93,4.47-2.94,1.46-.88,3.05-1.76,4.87-2.31,3.86-1.43,8.29,.96,11.81,.96-.07,.03-.25,.24-.25,.32-.05-.99-.36-2.22-.36-3.52-.03-2.23,1.21-3.96,3.64-3.86-.7,.23-.9,1.26-.65,1.86-.33-.62-.96-1.45-1.12-2.16-.87-2.77-.13-5.31-.85-7.76-.95-1.75-2.98-3.29-4.71-4.37-4.14-2.61-8.44-.84-11,3.03l-2.15-1.42c-.32,.4-.15,1.1-.18,.9,.03,.11-.01-.04-.02-.05-.16-.4-.47-.87-.75-1.13-.1-.1,0,.05,.3-.01,.07-.03,.12-.04,.16-.06-1.34,1.76-1.62,4.89-1.01,7.58,0,0,0,.03,.05,.13,.04,.06,.08,.18,.12,.24,.03,.08,.03,.04,.02,.06-.03-.04-.1-.05-.17-.07-.13,0-.05,.03,.11-.07,.54-.25,.88-.65,1.63-.86,.64-.16,1.35,.09,1.73,.64,.5,.69,.62,1.3,.76,1.89,.41,2.25,.31,4.65-.31,6.71-.28,1.38-.85,2.84-.31,4.07,.12,.24,.14,.19,.37,.44,.45,.45,1.14,1.52,1.51,2.03,.91,1.38,2.15,2.17,3.2,3.37l4.35,4.67c2.87,3.2,6.97,4.99,9.47,8.62,1.59,2.09,1.36,5.01-1.24,6.24-5.94,2.59-8.79,9.01-13.98,12.77-1.78,1.31-4,2.24-6.3,2.27-5.21,.03-9.21-4.99-6.42-9.85,2.08-4.28,6.09-6.62,10.59-7.67,7.64-2.35,16.1-1.04,14.23,9.01-.38,1.98-1.51,4.33-2.17,6.2-1.53,4.1-3.59,8.17-6.57,11.46-1.41,1.63-3.12,3.02-4.6,4.53-5.2,5.44-11.46,13.47-20.09,10.86-2.29-.69-3.91-2-5.97-2.94-3.09-1.52-6.2-2.7-8.61-5.66-4.02-5.04-2.6-12.99,2.03-17.18,3.9-3.09,10.26-3.74,14.5-.62,3.17,2.45,4.73,6.32,5.85,9.87,2.24,7.18-3.19,13.98-9.07,17.39-7.68,4.66-17.15,4.85-25.78,5.07-7.4,.34-18,.4-25.52,.47-8.51,.05-16.96,.12-25.45,.45-1.02,.03-1.95,.1-2.7,.35-1.14,.32-2.71,1.91-4.22,2.27-.65,.19-1.28,.28-1.85,.34l-1.58,.14c-3.17,.34-6.5,.85-9.77,.5-.83-.08-1.9-.08-2.79-.48-.37-.17-.98-.51-1.27-1.27-.25-.75-.05-1.36,.17-1.78,1.51-2.39,4.48-3.16,6.96-3.9,3.24-.83,5.4-1.94,6.42-5.07,.5-1.27,1.44-2.65,2.84-3.11,2.43-1,3.62,2.76,5.19,3.18,4.19,.5,8.41,.94,12.54,.37,4.14-.55,8.06-2.27,11.93-4.01,.1-.05,.22,0,.27,.1,.04,.1,0,.21-.09,.26-3.76,1.95-7.63,3.93-11.94,4.69-4.28,.79-8.63,.53-12.88,.21-1.46-.16-2.18-1.27-3.03-2.14-.44-.43-.77-.89-1.2-.95-1.99,.75-1.88,3.63-3.38,5.26-2.72,3.66-8.67,3.05-11.36,6.28-.03,.04,.06,0-.02-.25-.1-.26-.23-.27-.12-.23,3.67,.65,7.46-.08,11.19-.6,.88-.12,2.11-.17,2.87-.43,1.41-.52,2.59-1.9,4.1-2.34,1.27-.44,2.49-.52,3.59-.58,8.49-.5,17.03-.75,25.52-.96,8.52-.21,16.92-.51,25.46-.85,10.88-.3,26.35-1.04,30.89-12.81,.51-1.67,.38-3.4-.22-5.01-.63-1.91-1.36-3.75-2.38-5.23-1.95-3.2-5.54-3.64-9.03-2.58-4.46,1.16-6.84,8.96-3.67,12.84,1.97,2.55,5.83,3.85,8.73,5.47,2.13,1.26,4.07,2.51,6.51,2.36,6.02-.31,9.95-6.16,14.13-10.02,1.51-1.5,3.17-2.75,4.57-4.32,2.75-2.94,4.68-6.54,6.27-10.4,1.38-3.55,3.76-7.35,1.73-10.92-2.66-3.98-12.75-1.23-16.26,.87-2.75,1.99-6.33,6.05-3.97,9.49,1.08,1.5,3,2.49,4.87,2.45,6.56-.25,10-6.88,14.37-10.93,1.48-1.52,3.47-2.84,5.34-3.71,.89-.48,1.53-1.06,1.63-1.94,.18-3.9-6.53-7.28-9.07-9.79-2.15-2.06-5.59-5.97-7.87-7.85-1.09-1.09-1.74-2.45-2.81-3.47-1.39-1.61-.67-3.97-.35-5.72,.54-2.05,.49-3.98,.1-5.91-.11-.47-.26-.9-.45-1.08,.09,.1,.26,.16,.39,.13,0,0-.21,.11-.4,.24-.2,.13-.44,.31-.74,.48-1.21,.72-2.45,.27-3.03-1.06-.77-2.3-.98-4.93-.29-7.5,.42-1.2,.88-2.53,1.96-3.29,1.98-.98,3.32,1.12,3.98,2.57,.04,.14,.29,.65-.09,1.33l-2.15-1.42C119.8,2.65,123.11-.08,127.02,0c4.31-.08,10.48,3.9,11.94,7.97,.61,2.29,.24,5.99,.86,7.41,.33,.58,.89,1.28,1.09,1.94,.43,1.23-.82,2.46-1.81,2.62-.5,.1-.95,.12-1.24,.16,0,0,.19-.05,.33-.2,.08-.09,.04-.05,.04-.04-.33,1.7,.94,3.91-.09,5.74-2.27,3.59-8.53,.05-11.77,.21-2.9,.07-5.57,2.05-8.08,3.51-.76,.46-1.4,.81-1.76,1.16-1.3,1.32-.18,3.32,.52,4.81,1.13,2.07,2.46,4.61,3.37,6.8,5.14,12.51,5.67,26.31,6.08,39.6,.31,4.36-.38,10.13,2.33,13.78,1.93,2.6,5.64,1.9,8.51,2.22,3.29,.1,11.9,1.95,13.43-1.46l.04,.39c-1.83-2.77-5.99-3.39-9.05-2.77-.26,.07-.36-.31-.12-.38h0Z"/></g></svg>