<?xml version="1.0" encoding="UTF-8"?><svg id="_層_2" xmlns="http://www.w3.org/2000/svg" viewBox="0 0 2105.48 838.1"><g id="_層_1-2"><g><path d="M24.45,272.97C-3.84,409.26-18.59,562.51,52.07,688.54c7.75,12.87,16.71,25.32,26.67,36.55,33.93,38.67,86.19,70.51,139.14,57.32,89.37-23.55,121.92-141.53,173.68-208.1,18.31-23.99,41.36-46.06,70.36-56.17,43.41-15.52,93.39-4.45,129.32,23.45,12.34,9.05,21.76,21.19,30.77,33.39,35.14,49.1,65.32,103.4,79.12,162.58,6.13,29.11,8.51,62.65-5.5,89.53-.17-.08-.25-.29-.17-.46,9.22-19.05,22.75-35.64,37.33-50.83,14.69-15.14,30.68-28.97,47.29-41.96,20.56-16.41,42.72-31.28,67.04-41.56,9.44-4.13,19.85-7.82,29.74-10.83,25.25-7.43,51.83-11.15,78.15-10.73,31.62,.6,63.37,7.25,92.18,20.41,19.32,8.63,36.93,20.69,53.18,34.12,24.74,19.61,49.49,39.34,75.9,56.66,35.02,23.15,73.8,41.3,115.27,48.92,41.28,7.65,84.17,7.17,125.15-2.1,43.44-9.82,84.83-30.38,116.98-61.43,9.49-8.94,17.65-19.4,23.74-30.94,24.95-46.94,16.3-105.5-9.94-150.08-1.94-3.74-5.94-9.72-8.22-13.42-26.22-39.54-61.7-72.12-87.56-111.96-23.2-34.91-36.22-79.96-22.45-120.89,4.49-13.87,11.97-26.76,21.19-38.01,9.3-11.2,20.43-20.84,32.19-29.33,14.9-10.83,31.46-19.71,48.47-26.73,138.94-54.89,299.27,2.6,422.2,73.07-18.12-9.32-36.97-20.51-56.03-29.24-16.45-8.15-33.55-15.42-50.52-22.44-80.2-31.84-168.35-51.46-254.55-37.2-51.32,8.89-102.52,30.79-137.91,69.96-6.85,7.8-12.88,16.66-17.46,25.97-22,43.94-9.6,94.53,16.54,133.75,31.54,48.57,77.95,86.75,103.32,139.47,25.5,51.82,25.79,120.35-15.94,163.9-3.49,3.68-7.64,7.66-11.44,11.02-55.57,49.91-133.37,69.01-206.71,62.73-77.29-5.51-139.27-43.83-198.35-90.9-16.72-12.76-32.55-26.82-50.02-38.52-10.93-7.07-22.79-13.25-34.79-18.33-14.47-5.93-29.9-10.48-45.27-13.34-38.77-7.17-79.22-4.49-117,6.58-9.85,2.97-20.23,6.64-29.64,10.74-24.27,10.22-46.36,25-66.9,41.35-16.6,12.94-32.58,26.72-47.26,41.82-14.55,15.11-28.06,31.63-37.27,50.58l-.62-.3c13.02-27.69,11.45-59.68,5.05-88.93-13.86-59.04-43.99-113.28-79.19-162.2-9-12.13-18.38-24.14-30.68-33.12-35.69-27.56-85.3-38.45-128.27-22.96-28.71,10.1-51.44,32.01-69.56,55.86-51.94,67.26-84.28,185.18-174.52,208.83-53.51,13.3-106.47-18.78-140.73-57.96-10.01-11.31-19.04-23.85-26.8-36.81C-19.7,563.61-5.02,408.04,24.45,272.97h0Z"/><path d="M31.69,262.28C3.4,398.57-11.36,551.82,59.3,677.87c7.75,12.87,16.71,25.33,26.67,36.56,33.94,38.67,86.2,70.52,139.16,57.33,89.38-23.55,121.93-141.54,173.69-208.11,18.31-23.99,41.35-46.06,70.35-56.16,43.4-15.52,93.38-4.45,129.3,23.44,12.34,9.05,21.76,21.18,30.77,33.38,35.14,49.09,65.32,103.39,79.12,162.57,6.11,29.18,8.51,62.55-5.49,89.52-.17-.08-.24-.28-.16-.45,9.22-19.05,22.75-35.64,37.33-50.83,14.69-15.14,30.68-28.97,47.29-41.96,20.56-16.41,42.72-31.28,67.04-41.56,9.44-4.13,19.85-7.82,29.74-10.83,25.25-7.43,51.82-11.15,78.14-10.72,31.62,.6,63.36,7.25,92.17,20.42,19.32,8.63,36.92,20.69,53.17,34.12,24.74,19.61,49.49,39.34,75.9,56.66,35.02,23.16,73.81,41.31,115.28,48.93,41.29,7.65,84.18,7.17,125.16-2.1,43.44-9.82,84.84-30.39,117-61.44,9.5-8.94,17.65-19.4,23.74-30.94,24.96-46.95,16.31-105.52-9.95-150.11-1.94-3.74-5.95-9.72-8.22-13.42-26.22-39.54-61.7-72.12-87.56-111.96-23.2-34.91-36.22-79.95-22.45-120.87,4.49-13.86,11.97-26.76,21.19-38.01,9.3-11.2,20.43-20.83,32.18-29.33,14.9-10.83,31.45-19.71,48.47-26.73,138.93-54.89,299.26,2.6,422.19,73.05-18.13-9.34-36.97-20.51-56.02-29.25-16.44-8.15-33.55-15.42-50.52-22.44-80.2-31.84-168.35-51.47-254.56-37.21-51.32,8.89-102.53,30.79-137.93,69.96-6.85,7.8-12.88,16.67-17.46,25.98-22.01,43.95-9.6,94.55,16.54,133.78,31.54,48.57,77.94,86.75,103.31,139.47,25.49,51.8,25.78,120.32-15.93,163.87-3.49,3.68-7.64,7.66-11.44,11.02-55.56,49.9-133.35,69-206.69,62.72-77.29-5.51-139.26-43.83-198.34-90.89-16.72-12.76-32.55-26.82-50.02-38.52-10.93-7.07-22.79-13.25-34.8-18.33-14.47-5.93-29.9-10.48-45.27-13.34-38.77-7.17-79.22-4.49-117.01,6.59-9.85,2.97-20.23,6.64-29.64,10.75-24.27,10.22-46.36,25.01-66.9,41.35-16.6,12.94-32.58,26.73-47.26,41.82-14.55,15.11-28.06,31.63-37.27,50.59l-.61-.29c13.02-27.69,11.45-59.69,5.05-88.94-13.86-59.04-43.99-113.28-79.19-162.21-9-12.13-18.38-24.15-30.68-33.12-35.7-27.57-85.3-38.46-128.29-22.97-28.72,10.1-51.44,32.01-69.57,55.86-51.94,67.25-84.28,185.17-174.51,208.82-53.51,13.3-106.45-18.78-140.7-57.95-10.01-11.31-19.04-23.85-26.8-36.81C-12.44,552.9,2.25,397.38,31.69,262.28h0Z"/><path d="M38.94,251.59c-28.31,136.29-43.07,289.55,27.59,415.6,7.75,12.87,16.71,25.33,26.67,36.56,33.94,38.68,86.22,70.53,139.19,57.34,89.4-23.55,121.94-141.54,173.7-208.12,18.31-23.99,41.34-46.05,70.34-56.16,43.4-15.51,93.36-4.45,129.29,23.43,12.33,9.05,21.76,21.18,30.76,33.38,35.14,49.09,65.32,103.39,79.12,162.56,6.12,29.19,8.5,62.51-5.47,89.51-.16-.08-.23-.27-.16-.43,9.22-19.05,22.75-35.64,37.33-50.82,14.69-15.14,30.68-28.97,47.29-41.95,20.56-16.41,42.72-31.27,67.04-41.56,7.14-3.11,14.78-6,22.19-8.44,27.49-9.08,56.74-13.56,85.68-13.11,31.61,.6,63.36,7.25,92.16,20.42,19.32,8.63,36.92,20.69,53.17,34.12,24.74,19.61,49.49,39.34,75.9,56.66,35.02,23.16,73.81,41.31,115.28,48.94,41.29,7.65,84.19,7.17,125.17-2.1,43.45-9.82,84.85-30.39,117.01-61.44,9.5-8.94,17.65-19.41,23.75-30.95,24.96-46.96,16.31-105.54-9.95-150.14-1.94-3.74-5.95-9.72-8.22-13.42-26.22-39.54-61.7-72.12-87.56-111.96-23.2-34.9-36.21-79.93-22.45-120.84,4.49-13.86,11.96-26.75,21.18-38,9.3-11.2,20.42-20.83,32.18-29.32,14.9-10.83,31.45-19.71,48.46-26.73,138.92-54.89,299.26,2.59,422.18,73.03-18.13-9.37-36.96-20.51-56.02-29.26-16.44-8.15-33.55-15.42-50.52-22.44-80.2-31.85-168.35-51.48-254.57-37.22-51.33,8.89-102.54,30.79-137.94,69.97-6.85,7.8-12.89,16.67-17.47,25.98-22.01,43.96-9.61,94.57,16.54,133.81,31.54,48.57,77.94,86.75,103.31,139.47,25.48,51.79,25.78,120.29-15.93,163.83-3.49,3.68-7.64,7.66-11.44,11.02-55.56,49.9-133.34,68.99-206.67,62.72-77.28-5.51-139.25-43.82-198.32-90.88-16.72-12.76-32.56-26.82-50.02-38.52-10.93-7.07-22.79-13.25-34.8-18.33-14.47-5.93-29.9-10.48-45.27-13.33-38.77-7.17-79.23-4.48-117.01,6.59-9.85,2.97-20.23,6.64-29.64,10.75-24.27,10.22-46.36,25.01-66.9,41.36-16.6,12.94-32.58,26.73-47.26,41.82-14.55,15.11-28.06,31.64-37.27,50.59l-.59-.28c13.02-27.7,11.45-59.69,5.05-88.94-13.86-59.05-43.99-113.29-79.19-162.21-9-12.13-18.38-24.15-30.68-33.13-35.7-27.57-85.31-38.46-128.3-22.97-28.72,10.1-51.45,32.01-69.58,55.87-51.94,67.24-84.28,185.15-174.5,208.81-53.5,13.29-106.43-18.77-140.68-57.94-10.01-11.31-19.04-23.85-26.79-36.81C-5.18,542.2,9.52,386.72,38.94,251.59h0Z"/><path d="M46.18,240.9c-28.32,136.29-43.09,289.56,27.58,415.61,7.75,12.87,16.71,25.33,26.67,36.57,33.95,38.69,86.23,70.54,139.21,57.35,89.41-23.55,121.96-141.54,173.72-208.13,18.3-23.99,41.33-46.05,70.32-56.15,43.39-15.51,93.35-4.46,129.27,23.43,12.33,9.05,21.76,21.18,30.76,33.38,35.14,49.09,65.32,103.39,79.12,162.56,6.13,29.19,8.48,62.48-5.46,89.5-.16-.07-.23-.26-.15-.42,9.22-19.04,22.75-35.64,37.33-50.82,14.69-15.14,30.68-28.96,47.29-41.95,20.56-16.41,42.72-31.27,67.04-41.55,7.14-3.11,14.78-6,22.19-8.44,27.49-9.08,56.74-13.56,85.68-13.11,31.61,.6,63.35,7.26,92.15,20.42,19.32,8.63,36.91,20.69,53.16,34.12,24.74,19.62,49.49,39.35,75.9,56.67,35.02,23.16,73.82,41.32,115.29,48.94,41.29,7.65,84.19,7.18,125.18-2.1,43.46-9.82,84.86-30.39,117.03-61.45,9.5-8.94,17.66-19.41,23.76-30.96,24.97-46.97,16.32-105.56-9.95-150.17-1.94-3.74-5.95-9.73-8.22-13.42-26.22-39.54-61.7-72.12-87.56-111.96-23.19-34.89-36.21-79.91-22.45-120.82,4.49-13.86,11.96-26.75,21.18-37.99,9.3-11.2,20.42-20.83,32.17-29.32,14.9-10.83,31.45-19.71,48.46-26.73,138.91-54.89,299.25,2.58,422.17,73.02-18.14-9.4-36.96-20.51-56.01-29.26-16.44-8.15-33.55-15.42-50.52-22.45-80.2-31.86-168.36-51.49-254.57-37.23-51.33,8.89-102.55,30.79-137.96,69.97-6.85,7.8-12.89,16.67-17.47,25.99-22.02,43.96-9.62,94.59,16.54,133.84,31.53,48.57,77.94,86.75,103.31,139.46,25.48,51.78,25.77,120.27-15.92,163.8-3.49,3.68-7.64,7.66-11.44,11.02-55.55,49.89-133.32,68.99-206.65,62.71-77.28-5.51-139.24-43.82-198.31-90.87-16.72-12.76-32.56-26.82-50.03-38.52-10.94-7.07-22.8-13.25-34.81-18.34-14.47-5.93-29.9-10.48-45.28-13.33-38.78-7.17-79.23-4.48-117.02,6.59-9.85,2.97-20.23,6.64-29.64,10.75-24.27,10.23-46.37,25.01-66.9,41.36-16.6,12.95-32.58,26.73-47.26,41.82-14.55,15.11-28.06,31.64-37.27,50.59l-.57-.27c13.02-27.7,11.45-59.7,5.05-88.95-13.86-59.05-43.99-113.29-79.19-162.22-9-12.13-18.38-24.15-30.68-33.13-35.7-27.58-85.32-38.47-128.32-22.98-28.73,10.1-51.46,32.01-69.59,55.87-51.94,67.23-84.28,185.14-174.49,208.8-53.49,13.29-106.41-18.77-140.66-57.93-10.01-11.31-19.04-23.85-26.79-36.8C2.09,531.49,16.79,376.06,46.18,240.9h0Z"/><path d="M53.43,230.21c-28.33,136.29-43.11,289.57,27.56,415.62,7.75,12.87,16.71,25.33,26.67,36.57,33.95,38.7,86.25,70.55,139.23,57.35,89.42-23.55,121.97-141.54,173.73-208.14,18.3-23.99,41.33-46.04,70.31-56.15,43.39-15.51,93.34-4.46,129.26,23.42,12.33,9.04,21.76,21.17,30.76,33.37,35.14,49.09,65.32,103.38,79.12,162.55,3.23,14.81,5.15,29.97,4.76,45.16-.35,15.16-3.35,30.38-9.8,44.18-.07,.15-.25,.22-.4,.15-.15-.07-.22-.25-.15-.41,4.55-9.54,10.34-18.44,16.68-26.86,19.19-25.22,43.13-46.37,67.93-65.91,16.55-13.06,33.8-25.38,52.71-34.83,28.15-14.28,59.19-23.47,90.57-26.83,39.33-4.25,79.84,.75,116.51,15.8,12.08,5.08,24.02,11.28,35.04,18.38,8.86,5.77,17.15,12.36,25.37,18.92,56.92,45.67,117.58,92.54,191.2,105.62,81.98,15.23,173.27-1.49,236.47-58.2,4.66-4.22,9.82-9.03,13.94-13.82,40.48-45.33,37.21-114.73,9.46-165.83-26.03-49.14-69.53-85.85-99.61-132.26-23.19-34.89-36.21-79.89-22.45-120.79,4.49-13.85,11.96-26.74,21.17-37.98,9.3-11.2,20.42-20.83,32.17-29.32,14.89-10.83,31.44-19.71,48.45-26.73,138.9-54.89,299.24,2.58,422.16,73-18.15-9.43-36.96-20.5-56.01-29.27-16.44-8.15-33.55-15.43-50.52-22.45-80.2-31.86-168.36-51.5-254.58-37.24-51.34,8.89-102.56,30.79-137.97,69.97-6.85,7.8-12.89,16.68-17.47,25.99-22.02,43.97-9.62,94.61,16.54,133.86,31.53,48.57,77.94,86.75,103.3,139.46,25.47,51.77,25.77,120.24-15.92,163.76-3.49,3.68-7.64,7.66-11.43,11.02-55.54,49.89-133.31,68.98-206.62,62.71-77.27-5.51-139.23-43.81-198.3-90.86-16.72-12.76-32.56-26.81-50.03-38.52-10.94-7.07-22.8-13.25-34.81-18.34-14.47-5.93-29.91-10.48-45.28-13.33-36.18-6.66-73.88-4.84-109.42,4.51-15.06,3.91-30.35,9.52-44.46,16.05-21.52,9.95-41.17,23.46-59.7,38.15-16.6,12.95-32.58,26.73-47.26,41.82-14.55,15.12-28.06,31.64-37.27,50.6l-.55-.26c13.02-27.7,11.45-59.7,5.05-88.96-13.86-59.05-43.99-113.29-79.19-162.22-9-12.13-18.39-24.16-30.68-33.14-35.71-27.58-85.33-38.48-128.33-22.99-28.73,10.1-51.47,32.02-69.6,55.87-51.94,67.23-84.28,185.13-174.47,208.79-53.48,13.29-106.39-18.77-140.63-57.92-10.01-11.31-19.04-23.84-26.79-36.8C9.35,520.78,24.06,365.4,53.43,230.21h0Z"/><path d="M60.68,219.52c-28.34,136.29-43.12,289.57,27.54,415.64,7.75,12.87,16.71,25.34,26.68,36.57,33.96,38.7,86.26,70.56,139.26,57.36,89.43-23.55,121.98-141.55,173.74-208.15,18.3-23.98,41.32-46.04,70.3-56.14,43.38-15.51,93.33-4.48,129.26,23.38,12.34,9.04,21.77,21.17,30.78,33.37,35.16,49.08,65.3,103.4,79.09,162.58,6.36,29.38,8,61.48-5.05,89.33-.07,.15-.24,.21-.39,.14-.15-.07-.21-.25-.14-.39,9.22-19.04,22.75-35.63,37.32-50.81,14.69-15.14,30.68-28.96,47.29-41.95,20.56-16.41,42.72-31.27,67.03-41.55,9.44-4.13,19.84-7.81,29.73-10.82,25.24-7.42,51.81-11.14,78.12-10.71,31.61,.6,63.34,7.26,92.14,20.42,19.32,8.63,36.9,20.69,53.15,34.12,24.74,19.62,49.49,39.35,75.9,56.67,35.03,23.17,73.83,41.33,115.31,48.96,41.3,7.66,84.21,7.18,125.21-2.1,43.47-9.82,84.88-30.4,117.06-61.46,9.51-8.95,17.67-19.42,23.77-30.97,24.98-46.99,16.32-105.61-9.95-150.23-1.94-3.74-5.95-9.73-8.22-13.43-26.22-39.54-61.7-72.12-87.56-111.96-23.18-34.88-36.2-79.88-22.45-120.77,4.49-13.85,11.95-26.74,21.16-37.98,9.29-11.2,20.41-20.82,32.16-29.32,14.89-10.83,31.44-19.71,48.45-26.73,138.89-54.9,299.23,2.57,422.15,72.98-108.25-60.47-234.76-109.23-361.11-88.99-51.35,8.89-102.57,30.79-137.99,69.98-6.85,7.81-12.9,16.68-17.48,26-22.03,43.98-9.63,94.63,16.53,133.89,31.53,48.57,77.94,86.75,103.3,139.46,25.47,51.76,25.76,120.22-15.91,163.73-3.49,3.68-7.64,7.66-11.43,11.01-55.54,49.88-133.29,68.98-206.6,62.7-77.26-5.51-139.22-43.81-198.29-90.85-16.72-12.76-32.56-26.81-50.03-38.52-10.94-7.07-22.8-13.25-34.81-18.34-14.48-5.93-29.91-10.48-45.29-13.33-36.18-6.66-73.88-4.84-109.43,4.51-15.06,3.91-30.35,9.52-44.46,16.05-21.52,9.95-41.17,23.46-59.7,38.16-16.6,12.95-32.58,26.73-47.26,41.83-14.55,15.12-28.06,31.64-37.27,50.6l-.53-.25c13.02-27.7,11.45-59.71,5.04-88.96-13.86-59.05-44.04-113.26-79.22-162.2-8.99-12.13-18.37-24.16-30.66-33.14-35.7-27.6-85.32-38.52-128.33-23.02-28.74,10.1-51.48,32.02-69.62,55.88-51.94,67.22-84.27,185.12-174.46,208.77-53.47,13.29-106.38-18.77-140.61-57.91-10-11.31-19.04-23.84-26.79-36.8C16.61,510.07,31.33,354.73,60.68,219.52h0Z"/><path d="M67.92,208.82c-28.32,136.19-43.18,289.73,27.47,415.68,7.76,12.88,16.72,25.34,26.69,36.58,33.98,38.71,86.31,70.57,139.33,57.35,89.43-23.58,121.99-141.56,173.75-208.18,18.3-23.98,41.31-46.03,70.29-56.14,43.38-15.51,93.32-4.48,129.25,23.38,12.34,9.04,21.77,21.17,30.78,33.36,35.16,49.08,65.3,103.4,79.09,162.57,6.36,29.38,8,61.48-5.05,89.33-.07,.14-.24,.2-.38,.14-.14-.07-.2-.24-.14-.38,9.22-19.04,22.75-35.63,37.32-50.81,14.69-15.14,30.68-28.96,47.29-41.95,20.56-16.4,42.72-31.26,67.03-41.55,7.14-3.1,14.78-6,22.18-8.43,27.49-9.07,56.73-13.55,85.66-13.1,31.6,.61,63.34,7.26,92.13,20.42,19.32,8.63,36.9,20.69,53.15,34.11,24.74,19.62,49.49,39.35,75.9,56.68,35.03,23.17,73.84,41.34,115.32,48.96,41.31,7.66,84.22,7.18,125.22-2.09,43.47-9.82,84.9-30.4,117.07-61.47,9.51-8.95,17.67-19.43,23.77-30.98,24.98-47.01,16.33-105.63-9.95-150.26-1.94-3.74-5.95-9.73-8.22-13.43-26.22-39.54-61.7-72.12-87.56-111.96-23.18-34.87-36.2-79.86-22.45-120.74,4.49-13.85,11.95-26.73,21.16-37.97,9.29-11.19,20.41-20.82,32.16-29.31,14.89-10.83,31.43-19.71,48.44-26.73,138.88-54.9,299.22,2.57,422.14,72.96-108.26-60.5-234.76-109.24-361.11-89.01-51.35,8.89-102.58,30.79-138,69.98-6.86,7.81-12.9,16.68-17.48,26-22.03,43.99-9.64,94.65,16.53,133.92,31.53,48.57,77.93,86.74,103.3,139.46,25.46,51.75,25.76,120.19-15.91,163.69-3.48,3.68-7.64,7.65-11.43,11.01-55.53,49.88-133.28,68.97-206.58,62.7-77.26-5.51-139.21-43.8-198.28-90.84-16.73-12.76-32.56-26.81-50.03-38.52-10.94-7.07-22.8-13.25-34.82-18.34-14.48-5.93-29.91-10.48-45.29-13.33-36.18-6.66-73.89-4.84-109.44,4.51-15.06,3.91-30.35,9.52-44.46,16.05-21.52,9.95-41.18,23.46-59.7,38.16-16.6,12.95-32.58,26.73-47.27,41.83-14.55,15.12-28.06,31.65-37.27,50.6l-.51-.24c13.02-27.71,11.45-59.71,5.04-88.97-13.86-59.05-44.04-113.26-79.22-162.21-8.99-12.13-18.37-24.16-30.66-33.15-35.7-27.6-85.33-38.53-128.35-23.03-28.74,10.1-51.49,32.02-69.63,55.88-51.94,67.2-84.27,185.12-174.45,208.75-51.41,12.82-102.8-16.65-136.71-53.71-11.55-12.45-21.9-26.42-30.6-41.01-70.54-126-55.85-280.78-26.51-416.25h0Z"/><path d="M75.17,198.13c-28.33,136.19-43.19,289.74,27.45,415.69,7.76,12.88,16.72,25.34,26.7,36.58,33.98,38.72,86.33,70.58,139.35,57.36,89.4-23.57,122.07-141.53,173.8-208.16,18.28-23.98,41.28-46.04,70.24-56.15,43.36-15.53,93.3-4.5,129.22,23.36,12.34,9.04,21.77,21.16,30.78,33.36,35.16,49.07,65.3,103.4,79.1,162.56,6.36,29.38,8,61.47-5.05,89.32-.06,.14-.23,.2-.36,.13-.14-.06-.2-.23-.13-.37,9.22-19.04,22.75-35.63,37.32-50.8,14.69-15.14,30.68-28.96,47.29-41.94,20.56-16.4,42.71-31.26,67.03-41.54,7.14-3.1,14.78-6,22.18-8.43,27.49-9.07,56.72-13.55,85.66-13.09,31.6,.61,63.33,7.26,92.12,20.42,19.32,8.63,36.89,20.68,53.14,34.11,24.74,19.62,49.49,39.35,75.9,56.68,35.03,23.17,73.84,41.34,115.33,48.97,41.31,7.66,84.22,7.18,125.23-2.09,43.48-9.82,84.91-30.4,117.09-61.47,9.51-8.95,17.68-19.43,23.78-30.99,24.99-47.02,16.33-105.65-9.95-150.29-1.94-3.74-5.95-9.73-8.22-13.43-26.22-39.55-61.7-72.12-87.56-111.96-23.17-34.87-36.2-79.84-22.45-120.72,4.48-13.85,11.95-26.73,21.15-37.96,9.29-11.19,20.4-20.82,32.15-29.31,14.89-10.83,31.43-19.71,48.44-26.73,138.87-54.9,299.22,2.56,422.13,72.95-108.27-60.53-234.76-109.25-361.11-89.03-51.36,8.89-102.59,30.79-138.02,69.98-6.86,7.81-12.9,16.68-17.49,26.01-22.04,43.99-9.64,94.67,16.53,133.95,31.53,48.57,77.93,86.74,103.3,139.45,25.46,51.74,25.76,120.16-15.9,163.66-3.48,3.67-7.63,7.65-11.43,11.01-55.52,49.87-133.26,68.96-206.55,62.69-77.25-5.5-139.2-43.8-198.27-90.83-16.73-12.76-32.56-26.81-50.04-38.52-10.94-7.07-22.81-13.25-34.82-18.34-14.48-5.93-29.92-10.48-45.3-13.33-36.19-6.66-73.89-4.84-109.45,4.52-15.06,3.91-30.35,9.52-44.46,16.05-21.52,9.95-41.18,23.46-59.71,38.16-16.6,12.95-32.58,26.73-47.27,41.83-14.55,15.12-28.06,31.65-37.27,50.61l-.49-.23c13.02-27.71,11.45-59.72,5.04-88.98-13.86-59.05-44.04-113.27-79.21-162.21-8.99-12.14-18.37-24.17-30.67-33.15-35.71-27.61-85.34-38.53-128.37-23.05-28.75,10.09-51.52,32.01-69.67,55.87-51.96,67.19-84.19,185.13-174.4,208.77-51.4,12.82-102.79-16.65-136.69-53.7-11.55-12.44-21.9-26.42-30.6-41-70.54-126-55.85-280.74-26.53-416.24h0Z"/><path d="M82.42,187.44c-28.34,136.19-43.21,289.74,27.44,415.7,7.76,12.88,16.72,25.35,26.7,36.59,33.99,38.73,86.34,70.59,139.37,57.37,89.42-23.57,122.08-141.53,173.81-208.17,18.28-23.98,41.27-46.03,70.23-56.14,43.36-15.53,93.29-4.5,129.21,23.35,12.34,9.04,21.76,21.16,30.77,33.35,35.16,49.07,65.3,103.39,79.1,162.56,6.36,29.37,8,61.47-5.05,89.31-.06,.13-.22,.19-.35,.13-.13-.06-.19-.22-.13-.35,9.22-19.04,22.75-35.62,37.32-50.8,14.69-15.14,30.68-28.96,47.28-41.94,20.56-16.4,42.71-31.26,67.03-41.54,7.14-3.1,14.78-6,22.18-8.43,27.48-9.07,56.72-13.55,85.65-13.09,31.6,.61,63.33,7.26,92.11,20.42,19.31,8.63,36.89,20.68,53.14,34.11,24.74,19.62,49.49,39.36,75.9,56.68,35.03,23.17,73.85,41.35,115.33,48.97,41.31,7.66,84.23,7.19,125.24-2.09,43.48-9.82,84.92-30.4,117.1-61.48,9.51-8.95,17.68-19.44,23.79-31,24.99-47.03,16.34-105.67-9.95-150.32-1.94-3.74-5.95-9.73-8.23-13.43-26.22-39.55-61.7-72.12-87.56-111.96-23.17-34.86-36.19-79.83-22.45-120.7,4.48-13.84,11.94-26.72,21.15-37.95,9.29-11.19,20.4-20.82,32.15-29.31,14.89-10.82,31.43-19.71,48.43-26.73,138.87-54.9,299.21,2.56,422.12,72.93-108.28-60.57-234.76-109.26-361.12-89.05-51.36,8.88-102.6,30.79-138.03,69.99-6.86,7.81-12.91,16.69-17.49,26.01-22.05,44-9.65,94.69,16.53,133.98,31.53,48.57,77.93,86.74,103.29,139.45,25.45,51.73,25.75,120.14-15.9,163.63-3.48,3.67-7.63,7.65-11.43,11.01-55.52,49.87-133.25,68.96-206.53,62.69-77.24-5.5-139.19-43.8-198.25-90.82-16.73-12.76-32.56-26.81-50.04-38.52-10.94-7.07-22.81-13.25-34.83-18.34-14.48-5.93-29.92-10.48-45.3-13.33-36.19-6.66-73.9-4.84-109.45,4.52-15.06,3.91-30.35,9.52-44.47,16.06-21.52,9.95-41.18,23.46-59.71,38.16-16.6,12.95-32.58,26.74-47.27,41.83-14.55,15.12-28.06,31.65-37.27,50.61l-.48-.23c13.02-27.71,11.45-59.72,5.04-88.98-13.86-59.06-44.03-113.27-79.21-162.22-8.99-12.14-18.38-24.17-30.67-33.16-35.71-27.61-85.35-38.53-128.38-23.06-28.76,10.09-51.53,32.01-69.68,55.88-51.96,67.18-84.19,185.12-174.39,208.76-51.39,12.82-102.77-16.65-136.66-53.69-11.55-12.44-21.9-26.41-30.6-41-70.55-126-55.84-280.7-26.55-416.23h0Z"/><path d="M89.66,176.75c-28.12,134.76-42.69,285.11,24.6,410.8,5.45,9.76,11.93,19.5,18.73,28.37l3.49,4.47c31.25,38.8,78.01,72.54,129.99,68.72,100.32-9.29,136.93-141.91,190.53-210.85,13.78-18.05,29.96-34.77,49.58-46.49,32.89-19.71,74.46-21.35,110.05-8.18,21.25,7.92,41.38,20.27,56.45,37.37,4.96,5.75,9.6,11.75,14.11,17.85,35.16,49.07,65.3,103.39,79.1,162.55,6.17,29.22,8.38,62.26-5.38,89.43-.13-.06-.18-.21-.12-.34,9.22-19.04,22.74-35.62,37.32-50.8,14.69-15.13,30.68-28.96,47.28-41.94,20.56-16.4,42.71-31.26,67.03-41.54,9.43-4.13,19.84-7.81,29.72-10.82,25.24-7.42,51.8-11.14,78.1-10.7,31.6,.61,63.32,7.26,92.11,20.42,19.31,8.64,36.88,20.68,53.13,34.11,24.74,19.62,49.49,39.36,75.9,56.69,35.04,23.18,73.85,41.35,115.34,49,41.32,7.67,84.24,7.21,125.27-2.06,43.5-9.81,84.95-30.39,117.16-61.47,9.52-8.96,17.7-19.45,23.81-31.02,25-47.06,16.33-105.74-9.99-150.41-1.94-3.75-5.95-9.73-8.23-13.43-26.23-39.54-61.72-72.1-87.59-111.94-23.17-34.85-36.19-79.81-22.45-120.67,4.48-13.84,11.94-26.71,21.14-37.94,9.29-11.19,20.4-20.81,32.14-29.3,14.89-10.82,31.42-19.71,48.42-26.72,138.86-54.9,299.2,2.55,422.11,72.91-108.29-60.6-234.75-109.28-361.12-89.08-51.37,8.88-102.61,30.79-138.05,69.99-6.86,7.81-12.91,16.69-17.5,26.02-22.05,44.01-9.65,94.7,16.52,134.01,31.51,48.57,77.9,86.75,103.25,139.46,25.42,51.79,25.73,119.97-15.91,163.52-3.48,3.67-7.63,7.65-11.42,11-55.49,49.87-133.19,68.96-206.45,62.72-77.25-5.48-139.18-43.76-198.24-90.79-16.73-12.76-32.56-26.81-50.04-38.52-10.94-7.07-22.81-13.25-34.83-18.34-14.48-5.93-29.92-10.48-45.3-13.33-36.19-6.66-73.9-4.83-109.46,4.52-15.06,3.91-30.35,9.52-44.47,16.06-21.52,9.95-41.18,23.47-59.71,38.17-16.6,12.95-32.58,26.74-47.27,41.83-14.55,15.12-28.06,31.65-37.27,50.62l-.46-.22c13.02-27.71,11.45-59.72,5.04-88.99-13.86-59.06-44.03-113.28-79.21-162.23-8.99-12.14-18.38-24.17-30.67-33.16-35.71-27.62-85.36-38.54-128.4-23.06-28.76,10.09-51.54,32.02-69.69,55.88-51.96,67.18-84.19,185.11-174.38,208.74-51.39,12.82-102.75-16.64-136.64-53.68-11.55-12.44-21.9-26.41-30.6-40.99-70.55-126.01-55.83-280.66-26.57-416.22h0Z"/><path d="M96.91,166.06c-28.13,134.76-42.7,285.12,24.59,410.81,5.45,9.76,11.93,19.5,18.73,28.37l3.49,4.47c31.25,38.8,78.02,72.55,130.01,68.73,100.33-9.29,136.94-141.92,190.55-210.86,13.78-18.04,29.95-34.77,49.58-46.48,32.88-19.71,74.45-21.35,110.03-8.18,21.24,7.92,41.37,20.27,56.44,37.37,4.96,5.75,9.6,11.75,14.11,17.85,35.16,49.07,65.3,103.38,79.1,162.54,6.17,29.22,8.36,62.23-5.37,89.42-.12-.06-.17-.2-.12-.32,9.22-19.03,22.74-35.62,37.32-50.79,14.69-15.13,30.68-28.95,47.28-41.94,20.55-16.4,42.71-31.25,67.02-41.53,9.43-4.13,19.84-7.81,29.72-10.82,25.24-7.42,51.8-11.14,78.1-10.7,31.59,.61,63.31,7.26,92.1,20.42,19.31,8.64,36.88,20.68,53.13,34.11,24.74,19.62,49.49,39.36,75.9,56.69,35.04,23.18,73.86,41.36,115.35,49,41.32,7.67,84.25,7.21,125.28-2.06,43.5-9.81,84.96-30.4,117.17-61.48,9.53-8.96,17.71-19.45,23.81-31.03,25.01-47.07,16.33-105.76-9.99-150.43-1.94-3.75-5.95-9.73-8.23-13.44-26.24-39.54-61.72-72.1-87.59-111.94-23.17-34.84-36.19-79.79-22.45-120.64,4.48-13.84,11.94-26.71,21.14-37.94,9.28-11.19,20.39-20.81,32.13-29.3,14.88-10.82,31.42-19.7,48.42-26.72,138.85-54.9,299.19,2.54,422.1,72.89-108.3-60.64-234.75-109.29-361.12-89.1-51.37,8.88-102.62,30.79-138.07,69.99-6.86,7.81-12.91,16.69-17.5,26.02-22.06,44.02-9.66,94.72,16.52,134.03,31.51,48.57,77.9,86.75,103.25,139.46,25.42,51.78,25.72,119.95-15.9,163.49-3.48,3.67-7.63,7.65-11.42,11-55.48,49.86-133.18,68.96-206.43,62.71-77.24-5.48-139.17-43.76-198.23-90.78-16.73-12.76-32.56-26.81-50.05-38.51-10.94-7.07-22.81-13.25-34.83-18.34-14.48-5.93-29.92-10.48-45.31-13.33-36.19-6.66-73.91-4.83-109.47,4.53-15.07,3.91-30.36,9.52-44.47,16.06-21.52,9.95-41.18,23.47-59.71,38.17-16.6,12.95-32.58,26.74-47.27,41.84-14.55,15.12-28.06,31.65-37.28,50.62l-.44-.21c13.02-27.72,11.45-59.73,5.04-88.99-13.86-59.06-44.03-113.28-79.21-162.23-8.99-12.14-18.38-24.18-30.67-33.16-35.72-27.62-85.37-38.55-128.42-23.07-28.77,10.09-51.55,32.02-69.71,55.89-51.96,67.17-84.19,185.1-174.36,208.73-51.38,12.82-102.74-16.64-136.62-53.67-11.55-12.44-21.9-26.41-30.59-40.99-70.56-126.01-55.83-280.62-26.59-416.21h0Z"/><path d="M104.15,155.37c-28.14,134.76-42.72,285.13,24.57,410.82,5.45,9.76,11.93,19.5,18.73,28.37l3.49,4.47c31.26,38.81,78.03,72.56,130.03,68.74,100.35-9.29,136.95-141.92,190.56-210.87,13.78-18.04,29.95-34.76,49.57-46.48,32.88-19.7,74.44-21.35,110.01-8.18,21.24,7.92,41.37,20.26,56.44,37.36,4.96,5.75,9.6,11.75,14.11,17.85,35.16,49.06,65.3,103.38,79.1,162.54,6.36,29.37,8,61.46-5.05,89.29-.05,.12-.19,.17-.31,.11-.12-.05-.17-.19-.11-.31,9.22-19.03,22.74-35.62,37.32-50.79,14.69-15.13,30.68-28.95,47.28-41.94,18.54-14.74,38.24-28.31,59.8-38.3,14.15-6.57,29.46-12.2,44.57-16.15,35.66-9.42,73.48-11.3,109.8-4.67,15.44,2.83,30.96,7.4,45.51,13.32,12.07,5.08,24,11.28,35.01,18.37,17.57,11.73,33.38,25.73,50.17,38.49,58.79,46.7,120.9,84.97,197.68,90.37,72.91,6.2,150.27-12.79,205.46-62.43,3.61-3.25,7.99-7.34,11.33-10.93,41.19-43.07,40.87-110.77,15.65-162.01-25.36-52.63-71.71-90.74-103.2-139.29-26.45-39.68-38.73-90.96-16.44-135.31,4.64-9.4,10.77-18.38,17.71-26.25,21.17-23.65,48.82-40.89,77.95-53.01,138.84-54.91,299.18,2.54,422.09,72.88-108.31-60.67-234.75-109.3-361.12-89.12-51.38,8.88-102.63,30.79-138.08,70-6.86,7.81-12.92,16.7-17.51,26.03-22.06,44.03-9.67,94.74,16.52,134.06,31.51,48.57,77.9,86.75,103.25,139.46,25.41,51.77,25.72,119.92-15.9,163.45-3.48,3.67-7.62,7.65-11.41,11-55.47,49.86-133.17,68.95-206.41,62.7-77.24-5.48-139.16-43.76-198.22-90.77-16.73-12.76-32.56-26.81-50.05-38.51-10.95-7.07-22.82-13.25-34.84-18.34-14.48-5.93-29.93-10.48-45.31-13.33-36.2-6.66-73.91-4.83-109.47,4.53-15.07,3.91-30.36,9.52-44.47,16.06-21.52,9.96-41.18,23.47-59.71,38.17-16.6,12.95-32.58,26.74-47.27,41.84-14.56,15.12-28.07,31.66-37.28,50.62l-.42-.2c13.02-27.72,11.45-59.73,5.04-89-13.86-59.06-44.03-113.28-79.21-162.24-8.99-12.14-18.38-24.18-30.67-33.17-35.72-27.63-85.38-38.55-128.43-23.07-28.77,10.09-51.55,32.02-69.72,55.89-51.9,67.1-84.27,185.16-174.35,208.72-51.37,12.82-102.72-16.64-136.6-53.66-11.55-12.44-21.9-26.41-30.59-40.98-70.56-126.02-55.82-280.59-26.61-416.2h0Z"/><path d="M111.4,144.68c-28.15,134.76-42.73,285.13,24.56,410.83,5.45,9.76,11.93,19.5,18.73,28.38l3.49,4.47c31.26,38.82,78.04,72.57,130.05,68.76,100.37-9.29,136.96-141.92,190.58-210.88,13.78-18.04,29.94-34.76,49.56-46.47,32.87-19.7,74.43-21.34,110-8.19,21.24,7.92,41.36,20.26,56.43,37.36,4.96,5.75,9.6,11.75,14.11,17.85,35.16,49.06,65.3,103.37,79.11,162.53,6.37,29.37,8,61.45-5.05,89.29-.05,.11-.18,.16-.3,.11-.11-.05-.16-.19-.11-.3,9.22-19.03,22.74-35.61,37.32-50.79,14.69-15.13,30.68-28.95,47.28-41.93,20.55-16.4,42.71-31.25,67.02-41.53,9.43-4.13,19.84-7.81,29.72-10.81,25.23-7.42,51.79-11.13,78.09-10.7,31.59,.61,63.3,7.27,92.08,20.43,19.31,8.64,36.87,20.68,53.12,34.11,24.74,19.63,49.49,39.36,75.9,56.7,35.04,23.18,73.87,41.37,115.37,49.01,41.33,7.68,84.27,7.21,125.3-2.06,43.51-9.82,84.98-30.4,117.2-61.49,9.53-8.96,17.72-19.46,23.83-31.04,25.01-47.09,16.34-105.79-9.99-150.49-1.94-3.75-5.96-9.74-8.23-13.44-26.24-39.55-61.72-72.1-87.59-111.94-23.16-34.83-36.18-79.76-22.45-120.6,4.48-13.83,11.93-26.7,21.12-37.92,9.28-11.18,20.39-20.81,32.12-29.29,14.88-10.82,31.41-19.7,48.41-26.72,138.83-54.91,299.18,2.53,422.08,72.86-108.32-60.7-234.74-109.31-361.12-89.14-51.38,8.88-102.64,30.79-138.1,70-6.87,7.81-12.92,16.7-17.51,26.03-22.07,44.04-9.68,94.76,16.52,134.09,31.51,48.57,77.9,86.75,103.25,139.45,25.41,51.76,25.72,119.9-15.89,163.42-3.48,3.67-7.62,7.65-11.41,11-55.47,49.85-133.15,68.94-206.39,62.7-77.23-5.48-139.15-43.75-198.21-90.77-16.73-12.76-32.56-26.81-50.05-38.51-10.95-7.08-22.82-13.25-34.84-18.34-14.49-5.93-29.93-10.48-45.32-13.33-36.2-6.65-73.92-4.83-109.48,4.53-15.07,3.92-30.36,9.52-44.48,16.06-21.52,9.96-41.19,23.47-59.72,38.18-16.6,12.95-32.58,26.74-47.27,41.84-14.56,15.12-28.07,31.66-37.28,50.63l-.4-.19c13.02-27.72,11.45-59.74,5.04-89.01-13.86-59.07-44.03-113.29-79.2-162.25-8.99-12.14-18.38-24.18-30.68-33.17-35.73-27.63-85.39-38.56-128.45-23.08-28.77,10.09-51.56,32.03-69.73,55.9-51.9,67.09-84.28,185.15-174.34,208.71-51.36,12.82-102.7-16.63-136.58-53.65-11.55-12.44-21.89-26.4-30.59-40.98-70.57-126.02-55.82-280.55-26.63-416.19h0Z"/><path d="M118.65,133.99c-28.4,136.2-43.28,289.77,27.37,415.76,8.71,14.51,18.98,28.42,30.52,40.8,33.64,36.73,84.67,65.99,135.66,53.23,89.48-23.56,122.12-141.55,173.87-208.23,18.27-23.97,41.24-46.01,70.18-56.12,43.33-15.52,93.23-4.5,129.13,23.32,12.32,9.02,21.76,21.15,30.76,33.33,35.16,49.06,65.31,103.37,79.11,162.52,6.2,29.23,8.32,62.12-5.33,89.38-.11-.05-.15-.18-.1-.28,9.22-19.03,22.74-35.61,37.32-50.78,14.69-15.13,30.68-28.95,47.28-41.93,18.54-14.74,38.24-28.3,59.79-38.3,14.15-6.57,29.46-12.19,44.57-16.14,35.66-9.42,73.47-11.3,109.79-4.67,15.44,2.83,30.96,7.4,45.5,13.32,12.07,5.08,24,11.28,35,18.37,17.56,11.73,33.38,25.73,50.16,38.5,58.8,46.71,120.91,84.98,197.71,90.38,72.92,6.21,150.3-12.79,205.5-62.44,3.61-3.25,7.99-7.34,11.34-10.93,41.21-43.09,40.89-110.82,15.66-162.08-25.36-52.63-71.71-90.74-103.2-139.3-26.43-39.67-38.73-90.92-16.44-135.25,4.64-9.4,10.77-18.38,17.7-26.24,21.16-23.64,48.81-40.88,77.93-53.01,138.82-54.91,299.17,2.53,422.07,72.84-108.33-60.74-234.74-109.32-361.12-89.17-51.39,8.88-102.65,30.79-138.11,70-6.87,7.82-12.92,16.7-17.51,26.04-22.08,44.04-9.68,94.78,16.52,134.12,31.51,48.57,77.9,86.75,103.25,139.45,25.4,51.75,25.72,119.88-15.89,163.39-3.48,3.67-7.62,7.64-11.41,11-55.46,49.85-133.14,68.94-206.37,62.69-77.22-5.48-139.15-43.75-198.2-90.76-16.73-12.76-32.56-26.81-50.05-38.51-10.95-7.08-22.82-13.25-34.84-18.34-14.49-5.93-29.93-10.48-45.32-13.33-36.2-6.65-73.92-4.83-109.49,4.54-15.07,3.92-30.36,9.53-44.48,16.06-21.52,9.96-41.19,23.48-59.72,38.18-16.6,12.95-32.58,26.74-47.27,41.84-14.56,15.13-28.07,31.66-37.28,50.63l-.38-.18c13.02-27.72,11.45-59.74,5.04-89.01-13.86-59.07-44.02-113.29-79.2-162.25-8.99-12.14-18.38-24.18-30.68-33.17-35.73-27.64-85.4-38.57-128.46-23.09-28.78,10.09-51.57,32.03-69.74,55.9-51.9,67.09-84.28,185.14-174.33,208.7-51.35,12.81-102.68-16.63-136.56-53.64-11.55-12.44-21.89-26.4-30.59-40.98-70.57-126.03-55.81-280.51-26.65-416.19h0Z"/><path d="M125.89,123.3c-28.41,136.2-43.3,289.78,27.35,415.77,8.71,14.51,18.98,28.42,30.52,40.8,33.64,36.74,84.68,66,135.68,53.24,89.49-23.56,122.13-141.55,173.88-208.24,18.26-23.97,41.23-46,70.17-56.11,43.32-15.52,93.22-4.5,129.11,23.32,12.32,9.02,21.76,21.15,30.76,33.33,35.16,49.06,65.31,103.36,79.11,162.52,6.21,29.24,8.3,62.08-5.32,89.37-.1-.05-.14-.17-.1-.27,9.22-19.03,22.74-35.61,37.32-50.78,14.69-15.13,30.68-28.95,47.28-41.93,18.54-14.74,38.24-28.3,59.79-38.29,14.15-6.57,29.46-12.19,44.57-16.14,35.66-9.41,73.47-11.29,109.78-4.67,15.44,2.83,30.95,7.4,45.49,13.32,12.07,5.08,24,11.28,35,18.37,17.56,11.72,33.38,25.73,50.16,38.5,58.8,46.72,120.91,84.99,197.72,90.39,72.93,6.21,150.31-12.8,205.53-62.44,3.61-3.25,7.99-7.34,11.34-10.93,41.22-43.1,40.9-110.84,15.66-162.11-25.36-52.63-71.71-90.75-103.2-139.3-26.43-39.66-38.72-90.9-16.44-135.22,4.64-9.4,10.77-18.37,17.69-26.23,21.15-23.64,48.8-40.88,77.92-53,138.81-54.91,299.16,2.52,422.06,72.82-108.34-60.77-234.74-109.33-361.13-89.19-51.39,8.88-102.66,30.79-138.13,70.01-6.87,7.82-12.93,16.71-17.52,26.04-22.08,44.05-9.69,94.8,16.52,134.14,31.51,48.57,77.9,86.75,103.25,139.45,25.4,51.74,25.71,119.85-15.88,163.36-3.48,3.67-7.62,7.64-11.41,11-55.46,49.84-133.13,68.93-206.35,62.69-77.22-5.48-139.14-43.75-198.18-90.75-16.74-12.76-32.57-26.81-50.06-38.51-10.95-7.08-22.82-13.26-34.85-18.34-14.49-5.93-29.94-10.48-45.33-13.33-36.21-6.65-73.93-4.83-109.5,4.54-15.07,3.92-30.36,9.53-44.48,16.07-21.52,9.96-41.19,23.48-59.72,38.18-16.6,12.95-32.58,26.74-47.27,41.85-14.56,15.13-28.07,31.66-37.28,50.63l-.36-.17c13.02-27.73,11.45-59.75,5.04-89.02-13.85-59.07-44.02-113.3-79.2-162.26-4.51-6.08-9.15-12.07-14.1-17.79-35.4-39-94.95-56.37-145.06-38.48-28.78,10.09-51.58,32.03-69.75,55.91-45.46,60.11-68.52,137.59-128.66,186.07-62.08,48.55-133.07,22.29-182.19-31.01-10.23-11.05-19.64-23.34-27.61-36.12-73.87-124.61-59.09-285.32-29.65-421.03h0Z"/><path d="M133.14,112.61c-28.42,136.2-43.31,289.78,27.34,415.78,8.71,14.51,18.98,28.43,30.53,40.81,33.65,36.75,84.69,66.01,135.71,53.25,89.51-23.56,122.14-141.55,173.89-208.25,18.26-23.96,41.22-46,70.16-56.11,43.31-15.52,93.21-4.51,129.1,23.31,12.32,9.02,21.76,21.15,30.76,33.33,35.16,49.05,65.31,103.36,79.11,162.51,6.22,29.24,8.28,62.04-5.3,89.36-.1-.05-.14-.16-.09-.26,9.22-19.03,22.74-35.61,37.31-50.77,14.69-15.13,30.68-28.95,47.28-41.93,18.54-14.74,38.24-28.3,59.79-38.29,14.15-6.57,29.46-12.19,44.56-16.14,35.65-9.41,73.47-11.29,109.77-4.66,15.44,2.83,30.95,7.4,45.49,13.32,12.07,5.08,23.99,11.28,35,18.37,17.56,11.72,33.38,25.73,50.16,38.5,58.81,46.72,120.92,85,197.73,90.4,72.94,6.21,150.33-12.8,205.55-62.45,3.61-3.25,8-7.34,11.34-10.93,41.23-43.11,40.91-110.86,15.67-162.14-25.36-52.63-71.71-90.75-103.2-139.31-26.42-39.65-38.72-90.88-16.45-135.2,4.64-9.39,10.76-18.37,17.69-26.23,21.15-23.64,48.8-40.87,77.91-53,138.8-54.91,299.15,2.52,422.05,72.81-108.35-60.81-234.74-109.34-361.13-89.21-51.4,8.88-102.68,30.79-138.14,70.01-6.87,7.82-12.93,16.71-17.52,26.05-22.09,44.06-9.7,94.82,16.51,134.17,31.51,48.57,77.9,86.74,103.25,139.44,25.4,51.73,25.71,119.83-15.88,163.33-3.48,3.67-7.62,7.64-11.41,10.99-55.45,49.84-133.11,68.92-206.33,62.68-77.21-5.48-139.13-43.74-198.17-90.74-16.74-12.76-32.57-26.81-50.06-38.51-10.95-7.08-22.83-13.26-34.85-18.34-14.49-5.93-29.94-10.48-45.33-13.33-36.21-6.65-73.93-4.82-109.5,4.54-15.07,3.92-30.36,9.53-44.48,16.07-21.53,9.96-41.19,23.48-59.72,38.18-16.6,12.95-32.58,26.75-47.27,41.85-14.56,15.13-28.07,31.67-37.28,50.64l-.35-.16c13.02-27.73,11.45-59.75,5.04-89.03-13.85-59.07-44.02-113.3-79.2-162.27-4.51-6.08-9.15-12.07-14.1-17.79-35.41-39-94.96-56.37-145.08-38.49-28.78,10.09-51.59,32.03-69.76,55.91-45.46,60.11-68.53,137.58-128.66,186.06-62.07,48.54-133.04,22.28-182.16-31-10.23-11.05-19.64-23.34-27.61-36.12-73.86-124.53-59.09-285.36-29.67-421.02h0Z"/><path d="M140.39,101.91c-28.43,136.2-43.33,289.79,27.32,415.79,8.71,14.52,18.98,28.43,30.53,40.81,33.65,36.75,84.71,66.02,135.73,53.26,89.52-23.56,122.15-141.56,173.9-208.26,18.26-23.96,41.22-45.99,70.14-56.1,43.31-15.52,93.2-4.51,129.08,23.3,12.32,9.02,21.76,21.14,30.76,33.32,35.16,49.05,65.31,103.36,79.12,162.5,6.23,29.25,8.27,62.01-5.29,89.35-.09-.04-.13-.15-.09-.24,9.22-19.03,22.74-35.6,37.31-50.77,14.69-15.13,30.68-28.95,47.28-41.92,18.54-14.74,38.24-28.3,59.79-38.29,14.15-6.57,29.45-12.19,44.56-16.14,35.65-9.41,73.46-11.29,109.77-4.66,15.44,2.83,30.95,7.4,45.48,13.32,12.07,5.08,23.99,11.28,34.99,18.37,17.56,11.72,33.38,25.74,50.15,38.5,58.81,46.73,120.92,85.01,197.74,90.41,72.94,6.21,150.34-12.8,205.57-62.46,3.61-3.25,8-7.34,11.34-10.93,41.23-43.11,40.92-110.88,15.67-162.17-25.36-52.64-71.71-90.75-103.2-139.31-26.42-39.64-38.72-90.86-16.45-135.17,4.64-9.39,10.76-18.37,17.68-26.22,21.15-23.63,48.79-40.87,77.9-53,138.79-54.91,299.14,2.51,422.04,72.79-108.37-60.84-234.73-109.35-361.13-89.23-51.4,8.88-102.69,30.79-138.16,70.01-6.87,7.82-12.93,16.71-17.53,26.05-22.09,44.06-9.7,94.84,16.51,134.2,31.51,48.57,77.89,86.74,103.25,139.44,25.39,51.64,25.69,119.89-15.87,163.29-3.48,3.67-7.62,7.64-11.4,10.99-55.44,49.83-133.1,68.91-206.31,62.67-77.2-5.48-139.12-43.74-198.16-90.73-16.74-12.76-32.57-26.8-50.06-38.51-10.95-7.08-22.83-13.26-34.86-18.34-14.49-5.93-29.94-10.48-45.33-13.33-36.21-6.65-73.94-4.82-109.51,4.55-15.07,3.92-30.37,9.53-44.48,16.07-21.53,9.96-41.19,23.48-59.72,38.19-16.6,12.95-32.58,26.75-47.27,41.85-14.56,15.13-28.07,31.67-37.28,50.64l-.33-.15c13.02-27.73,11.45-59.75,5.04-89.03-13.85-59.07-44.02-113.31-79.19-162.27-4.51-6.08-9.15-12.07-14.1-17.79-35.41-39.01-94.97-56.38-145.1-38.49-28.79,10.09-51.59,32.04-69.77,55.92-45.46,60.11-68.53,137.58-128.66,186.05-62.06,48.54-133.02,22.28-182.13-31-10.23-11.05-19.64-23.33-27.61-36.11-73.87-124.54-59.08-285.31-29.69-421.01h0Z"/><path d="M147.63,91.22c-28.45,136.2-43.34,289.79,27.31,415.8,8.71,14.52,18.98,28.43,30.53,40.82,33.66,36.76,84.72,66.03,135.75,53.27,89.53-23.56,122.16-141.56,173.91-208.27,18.26-23.96,41.21-45.99,70.13-56.1,43.3-15.52,93.18-4.51,129.06,23.3,12.32,9.02,21.75,21.14,30.76,33.32,35.16,49.05,65.31,103.35,79.12,162.5,6.37,29.35,8,61.43-5.05,89.26-.08,.2-.41,.05-.31-.15,9.22-19.02,22.74-35.6,37.31-50.77,14.69-15.13,30.68-28.94,47.28-41.92,18.54-14.74,38.24-28.3,59.79-38.29,14.15-6.57,29.45-12.19,44.56-16.13,35.65-9.41,73.46-11.29,109.76-4.66,15.44,2.83,30.95,7.4,45.48,13.32,12.07,5.08,23.99,11.28,34.99,18.37,17.56,11.72,33.37,25.74,50.15,38.5,58.81,46.74,120.93,85.02,197.75,90.42,72.95,6.21,150.36-12.8,205.59-62.46,3.61-3.25,8-7.34,11.34-10.94,41.24-43.12,40.93-110.9,15.68-162.21-25.36-52.64-71.71-90.75-103.2-139.31-26.41-39.64-38.71-90.84-16.45-135.14,4.63-9.39,10.76-18.36,17.68-26.22,21.14-23.63,48.79-40.87,77.89-52.99,138.78-54.92,299.14,2.51,422.03,72.77-108.38-60.87-234.73-109.36-361.13-89.25-51.41,8.88-102.7,30.79-138.17,70.02-6.87,7.82-12.94,16.72-17.53,26.06-22.1,44.07-9.71,94.86,16.51,134.23,31.51,48.57,77.89,86.74,103.24,139.44,25.39,51.63,25.68,119.87-15.87,163.26-3.47,3.67-7.62,7.64-11.4,10.99-55.44,49.83-133.08,68.91-206.29,62.67-77.2-5.48-139.11-43.74-198.15-90.72-16.74-12.76-32.57-26.8-50.06-38.51-10.95-7.08-22.83-13.26-34.86-18.35-14.49-5.93-29.94-10.48-45.34-13.33-36.21-6.65-73.94-4.82-109.52,4.55-15.07,3.92-30.37,9.53-44.49,16.07-21.53,9.96-41.19,23.48-59.72,38.19-16.6,12.96-32.58,26.75-47.27,41.85-14.56,15.13-28.07,31.67-37.28,50.65l-.31-.15c13.02-27.74,11.45-59.76,5.04-89.04-13.85-59.08-44.02-113.31-79.19-162.28-4.51-6.08-9.15-12.07-14.1-17.8-35.42-39.02-94.98-56.39-145.12-38.5-28.79,10.09-51.6,32.04-69.78,55.92-45.46,60.11-68.53,137.57-128.66,186.04-62.05,48.53-132.99,22.27-182.1-30.99-10.23-11.05-19.64-23.33-27.61-36.11-73.88-124.55-59.07-285.27-29.71-421h0Z"/><path d="M154.88,80.53c-28.46,136.2-43.35,289.8,27.29,415.81,8.71,14.52,18.99,28.44,30.53,40.82,33.66,36.77,84.73,66.04,135.77,53.28,89.55-23.56,122.17-141.56,173.93-208.28,18.25-23.96,41.2-45.98,70.12-56.09,43.3-15.52,93.17-4.51,129.05,23.29,12.32,9.02,21.75,21.14,30.75,33.31,35.16,49.05,65.31,103.35,79.12,162.49,6.37,29.35,7.99,61.43-5.05,89.25-.08,.19-.39,.05-.29-.14,9.22-19.02,22.74-35.6,37.31-50.76,14.69-15.13,30.68-28.94,47.28-41.92,18.54-14.73,38.23-28.29,59.78-38.28,14.15-6.57,29.45-12.19,44.56-16.13,35.65-9.41,73.45-11.28,109.75-4.65,15.43,2.83,30.94,7.4,45.48,13.32,12.07,5.08,23.99,11.28,34.99,18.37,17.55,11.72,33.37,25.74,50.15,38.5,58.82,46.74,120.93,85.03,197.77,90.43,72.96,6.21,150.37-12.8,205.61-62.47,3.61-3.25,8-7.34,11.35-10.94,41.25-43.13,40.94-110.92,15.69-162.24-25.36-52.64-71.71-90.76-103.21-139.32-26.41-39.63-38.71-90.82-16.45-135.11,4.63-9.39,10.75-18.36,17.68-26.21,21.14-23.63,48.78-40.86,77.88-52.99,138.78-54.92,299.13,2.5,422.02,72.75-108.39-60.91-234.73-109.37-361.13-89.28-51.41,8.88-102.71,30.79-138.19,70.02-6.88,7.82-12.93,16.72-17.54,26.06-22.1,44.08-9.72,94.88,16.51,134.25,31.51,48.57,77.89,86.74,103.24,139.43,25.38,51.62,25.68,119.84-15.86,163.23-3.47,3.67-7.62,7.64-11.4,10.99-55.43,49.82-133.07,68.9-206.27,62.66-77.19-5.48-139.1-43.73-198.14-90.71-16.74-12.76-32.57-26.8-50.07-38.51-10.96-7.08-22.83-13.26-34.86-18.35-14.49-5.93-29.95-10.48-45.34-13.33-36.22-6.65-73.95-4.82-109.53,4.55-15.07,3.92-30.37,9.53-44.49,16.07-21.53,9.96-41.2,23.49-59.73,38.19-16.6,12.96-32.58,26.75-47.27,41.85-14.56,15.13-28.07,31.67-37.28,50.65l-.29-.14c13.03-27.74,11.45-59.76,5.04-89.05-13.85-59.08-44.01-113.31-79.19-162.29-8.99-12.15-18.39-24.2-30.69-33.19-35.75-27.66-85.45-38.6-128.54-23.11-28.8,10.1-51.61,32.04-69.79,55.93-51.89,67.05-84.29,185.08-174.28,208.64-51.31,12.81-102.6-16.62-136.45-53.59-11.55-12.43-21.89-26.39-30.58-40.95-70.59-126.05-55.78-280.32-26.75-416.14h0Z"/><path d="M162.12,69.84c-28.47,136.21-43.37,289.81,27.28,415.83,8.71,14.52,18.99,28.44,30.53,40.83,33.67,36.77,84.75,66.05,135.79,53.29,89.56-23.56,122.18-141.57,173.94-208.3,18.25-23.95,41.2-45.98,70.11-56.09,43.29-15.52,93.16-4.51,129.03,23.29,12.32,9.02,21.75,21.13,30.75,33.31,35.16,49.04,65.31,103.34,79.12,162.48,6.37,29.35,7.99,61.43-5.05,89.24-.07,.18-.36,.04-.27-.13,9.22-19.02,22.74-35.59,37.31-50.76,14.69-15.13,30.68-28.94,47.28-41.92,18.54-14.73,38.23-28.29,59.78-38.28,14.15-6.57,29.45-12.19,44.55-16.13,35.65-9.41,73.45-11.28,109.75-4.65,15.43,2.83,30.94,7.4,45.47,13.32,12.06,5.08,23.98,11.28,34.98,18.37,17.55,11.72,33.37,25.74,50.15,38.5,58.82,46.75,120.94,85.04,197.78,90.44,72.97,6.21,150.39-12.8,205.63-62.48,3.62-3.25,8-7.34,11.35-10.94,41.26-43.14,40.95-110.95,15.69-162.27-25.36-52.64-71.71-90.76-103.21-139.32-26.4-39.62-38.7-90.8-16.44-135.08,4.63-9.38,10.75-18.35,17.67-26.2,21.14-23.62,48.77-40.85,77.87-52.97,138.73-54.9,299.12,2.54,422.01,72.71-108.38-60.99-234.72-109.44-361.14-89.33-51.42,8.88-102.72,30.8-138.21,70.04-6.88,7.83-12.94,16.72-17.54,26.07-22.11,44.09-9.72,94.91,16.52,134.29,31.51,48.57,77.89,86.74,103.24,139.43,25.38,51.61,25.68,119.82-15.85,163.2-3.47,3.67-7.61,7.64-11.4,10.99-55.43,49.82-133.06,68.89-206.24,62.65-77.18-5.48-139.09-43.73-198.13-90.7-16.74-12.76-32.57-26.8-50.07-38.51-10.96-7.08-22.84-13.26-34.87-18.35-14.5-5.93-29.95-10.48-45.35-13.33-36.22-6.65-73.95-4.82-109.53,4.56-15.07,3.92-30.37,9.53-44.49,16.08-21.53,9.96-41.2,23.49-59.73,38.2-16.6,12.96-32.58,26.75-47.27,41.86-14.56,15.13-28.07,31.67-37.28,50.65l-.27-.13c13.03-27.74,11.44-59.77,5.04-89.05-13.85-59.08-44.01-113.32-79.19-162.29-8.99-12.15-18.39-24.2-30.69-33.2-35.75-27.66-85.46-38.61-128.56-23.12-28.8,10.1-51.62,32.05-69.8,55.93-51.89,67.04-84.29,185.06-174.26,208.63-51.3,12.81-102.58-16.62-136.43-53.58-11.54-12.43-21.89-26.38-30.58-40.95-70.6-126.05-55.78-280.28-26.77-416.13h0Z"/><path d="M169.37,59.15c-28.48,136.21-43.38,289.81,27.27,415.84,8.71,14.52,18.99,28.44,30.53,40.83,33.67,36.78,84.76,66.06,135.81,53.3,89.57-23.56,122.18-141.57,173.95-208.31,18.25-23.95,41.19-45.97,70.1-56.08,43.28-15.52,93.15-4.51,129.01,23.28,12.32,9.02,21.75,21.13,30.75,33.31,35.16,49.04,65.31,103.34,79.12,162.48,6.26,29.26,8.2,61.87-5.23,89.3-.07-.03-.1-.12-.07-.19,9.22-19.02,22.74-35.59,37.31-50.76,14.69-15.13,30.68-28.94,47.28-41.92,18.54-14.73,38.23-28.29,59.78-38.28,14.15-6.57,29.45-12.18,44.55-16.13,35.64-9.41,73.44-11.28,109.74-4.65,15.43,2.83,30.94,7.4,45.47,13.32,12.06,5.08,23.98,11.28,34.98,18.37,17.55,11.72,33.37,25.74,50.14,38.5,58.82,46.75,120.94,85.04,197.79,90.45,72.97,6.21,150.4-12.8,205.65-62.48,3.62-3.26,8-7.35,11.35-10.94,41.27-43.15,40.96-110.97,15.7-162.3-25.36-52.64-71.71-90.76-103.21-139.33-26.4-39.61-38.69-90.78-16.44-135.05,4.63-9.38,10.75-18.35,17.67-26.2,21.13-23.62,48.77-40.85,77.86-52.97,138.72-54.9,299.11,2.53,422,72.7-108.39-61.02-234.72-109.45-361.14-89.35-51.43,8.88-102.73,30.8-138.22,70.05-6.88,7.83-12.94,16.73-17.54,26.08-22.11,44.1-9.72,94.93,16.52,134.31,31.51,48.57,77.89,86.73,103.24,139.42,25.37,51.6,25.67,119.8-15.85,163.17-3.47,3.67-7.61,7.64-11.4,10.99-55.42,49.81-133.04,68.89-206.22,62.65-77.18-5.48-139.08-43.73-198.11-90.69-16.74-12.76-32.57-26.8-50.07-38.51-10.96-7.08-22.84-13.26-34.87-18.35-14.5-5.93-29.95-10.48-45.35-13.33-36.22-6.65-73.96-4.81-109.54,4.56-15.07,3.92-30.37,9.53-44.49,16.08-21.53,9.96-41.2,23.49-59.73,38.2-16.6,12.96-32.58,26.75-47.27,41.86-14.56,15.13-28.07,31.68-37.28,50.66l-.25-.12c13.03-27.74,11.44-59.77,5.04-89.06-13.85-59.08-44.01-113.32-79.19-162.3-8.99-12.15-18.4-24.21-30.69-33.2-35.76-27.67-85.47-38.61-128.58-23.13-28.8,10.1-51.63,32.05-69.81,55.94-51.88,67.03-84.29,185.05-174.25,208.62-51.29,12.81-102.56-16.61-136.4-53.57-11.54-12.43-21.88-26.38-30.58-40.95-70.6-126.06-55.77-280.25-26.79-416.12h0Z"/><path d="M176.62,48.46c-28.49,136.21-43.4,289.82,27.25,415.85,8.71,14.52,18.99,28.44,30.54,40.83,33.67,36.79,84.77,66.07,135.84,53.31,89.59-23.56,122.19-141.57,173.96-208.32,18.25-23.95,41.18-45.97,70.09-56.08,43.28-15.51,93.13-4.51,129,23.28,12.32,9.01,21.75,21.13,30.75,33.3,35.16,49.04,65.31,103.33,79.13,162.47,6.27,29.27,8.19,61.83-5.22,89.29-.07-.03-.09-.11-.06-.17,9.22-19.02,22.74-35.59,37.31-50.75,14.69-15.13,30.68-28.94,47.28-41.91,18.54-14.73,38.23-28.29,59.78-38.27,14.15-6.57,29.45-12.18,44.55-16.13,35.64-9.41,73.44-11.28,109.73-4.64,15.43,2.83,30.93,7.4,45.46,13.32,12.06,5.08,23.98,11.28,34.97,18.37,17.55,11.72,33.37,25.74,50.14,38.5,58.82,46.76,120.95,85.05,197.8,90.46,72.98,6.21,150.42-12.8,205.67-62.49,3.62-3.26,8-7.35,11.35-10.94,41.28-43.16,40.97-110.99,15.7-162.33-25.36-52.64-71.72-90.77-103.21-139.33-26.39-39.6-38.69-90.76-16.45-135.03,4.63-9.38,10.75-18.35,17.66-26.19,21.13-23.62,48.76-40.85,77.85-52.96,138.72-54.9,299.1,2.52,421.99,72.68-108.41-61.05-234.71-109.46-361.14-89.37-51.43,8.88-102.74,30.8-138.24,70.05-6.88,7.83-12.95,16.73-17.55,26.08-22.12,44.11-9.73,94.95,16.51,134.34,31.51,48.57,77.89,86.73,103.24,139.42,25.37,51.59,25.67,119.77-15.84,163.13-3.47,3.67-7.61,7.63-11.4,10.98-55.41,49.81-133.03,68.88-206.2,62.64-77.08-5.44-139.15-43.76-198.1-90.68-16.74-12.76-32.57-26.8-50.07-38.51-10.96-7.08-22.84-13.26-34.88-18.35-14.5-5.93-29.96-10.48-45.36-13.33-36.22-6.65-73.96-4.81-109.55,4.56-15.07,3.92-30.37,9.54-44.49,16.08-21.53,9.96-41.2,23.49-59.73,38.2-16.6,12.96-32.58,26.75-47.27,41.86-14.56,15.14-28.07,31.68-37.29,50.66l-.23-.11c13.03-27.75,11.44-59.78,5.04-89.07-13.85-59.08-44.01-113.33-79.18-162.31-8.99-12.15-18.4-24.21-30.7-33.21-35.76-27.67-85.48-38.62-128.59-23.13-28.81,10.1-51.64,32.05-69.82,55.95-51.88,67.02-84.29,185.04-174.24,208.61-51.28,12.81-102.55-16.61-136.38-53.56-11.54-12.43-21.88-26.38-30.58-40.94-70.61-126.06-55.76-280.21-26.81-416.11h0Z"/></g></g></svg>