<?xml version="1.0" encoding="UTF-8"?><svg id="_層_2" xmlns="http://www.w3.org/2000/svg" viewBox="0 0 126.42 144.22"><defs><style>.cls-1{fill:#011826;}</style></defs><g id="_層_1-2"><path class="cls-1" d="M64.13,15.56c-.32,7.17,5.58,12.66,11.69,15.34,4.92,2.24,10.44,2.04,15.22,4.78,4.17,2.38,4.52,5.81,4.87,9.92,.17,.92,.41,1.51,.97,1.97-.19-.15-.08-.06,.05-.05,2.14,.34,4.38,.14,6.69,.25,1.77,.18,3.63,.65,5.26,1.3,3.39,1.28,10.45,2.96,12.97-.05,.68-.8,1.08-1.91,.63-2.79l1.61,1.01c-9.3-.25-18.59-3.04-26.35-8.41-3.82-2.59-7.15-6.1-10.05-9.67-2.91-3.46-5.7-6.99-8.49-10.49-6.01-7.73-14.02-18.14-24.83-12.8-5.95,2.59-10.44,7.16-14.78,12.07-7.57,8.17-12.59,18.15-18.59,27.48-2.16,3.73-2.51,8.04-2.12,12.31,.23,4.05,1.18,8.87,6.12,8.18,3.06-.43,5.96-2.33,8.27-4.43,2.38-2.17,4.98-4.46,6.43-7.31,1.89-3.73,1.64-8.58,.14-12.4-1.61-3.93-5.39-6.85-9.57-7.35C13.94,32.74,3.36,60.45,2.73,73.68c-.32,6.29,1.63,12.91,8.04,14.82,3.96,1.32,8.42,1.73,12.62,1.56,2.16-.1,4.26-.31,5.78-1.08,5.23-2.79,.14-11.12-3.02-13.67-5.41-4.24-8.06,5.13-8.94,9.22-.83,4.83-1.51,10.61,.74,15.03,1.74,2.02,4.19,2.81,6.95,3.52,8.73,2.08,18.01,2.3,26.59,5.99,2.77,1.22,5.52,2.84,7.76,4.98,1.61,1.3,3.11,3.72,5,4.01,2.13-.27,4.12-2.81,6.58-3.44,.82-.26,1.8-.37,2.76-.27l-2.76,3.71c-.65-1.5-.75-3.18-.48-4.6,.52-2.65,1.97-4.84,3.69-6.69,1.55-1.7,4.41-4.23,4.68-6.28,1-4.77-3-9.83-7.66-10.87-3.12-.79-6.7,.34-9.15,2.66-2.5,2.15-2.44,4.63-4.07,7.59-.88,1.47-2.67,2.69-4.52,2.73-4.44,.02-6.89-4.1-8.31-7.69-.68-1.36-3.2-5.32-4.86-4.41-.85,.65-1.34,1.67-1.81,2.81-1.42,3.63-2.01,7.78-2.76,11.7-1.69,7.82-3.43,16.01-1.69,23.94,.8,3.19,1.28,6.73,3.22,9.36,1.63,1.48,3.96,1.86,6.32,2.31,3.99,.58,8.24,.79,12.27,1.05,8.16,.38,16.69,.37,24.88,.36,.63-.07,2.32,.14,2.81-.13,.63-.25,.93-1.12,.73-1.97-.39-1.86-2.11-3.13-4.07-2.86-1.98,.18-3.91,1.03-5.89,1.68-.13,.04-.27-.03-.32-.16-.04-.13,.02-.26,.15-.31,1.92-.75,3.79-1.73,5.97-2.06,2.29-.52,4.76,1.11,5.3,3.45,.56,2.08-.83,3.93-3.1,3.74-10.87,.48-21.92,1.15-32.81,.54-4.86-.36-10.34-.03-14.46-3.36-2.69-2.96-3.39-7.17-4.45-10.84-1.84-7.42-1.01-15.1,.53-22.44,1.47-5.87,1.53-20.1,9.02-21.43,4.34-.41,7.29,3.56,9.16,6.85,.9,1.73,1.61,4.06,3.5,4.91,1.12,.51,1.38-1.54,1.83-2.74,2.21-7.24,10.3-12.09,17.74-10.33,10.42,2.32,16.41,15.67,7.87,23.59-1.65,1.69-4.08,3.92-4.51,6.27-.11,.62-.05,1.09,.12,1.51,.78,1.84-.8,3.87-2.76,3.71-.16,0-.31,0-.56,.07-2.53,1.11-5.1,3.95-8.38,3.66-4.53-.28-6.46-4.07-9.48-6.46-4.96-3.98-11.13-5.35-17.47-6.55-7.1-1.62-18.94-1.77-23.35-8.61-3.53-7.03-1.82-18.08,1.26-25.03,4.86-10.51,13.94-7.83,18.38,1.24,2.67,4.7,3.25,11.79-2.53,14.43-2.55,1.18-5.06,1.24-7.34,1.3-4.73,.03-9.34-.53-13.85-2.17C2.03,89.02-.55,80.91,.1,73.55c1.04-14.18,13.04-42.76,30.38-40.68,6.01,.73,10.85,5.82,11.75,11.7,1.25,6.27-.69,11.57-5.37,15.82-3.98,3.93-9.28,9-15.41,7.01-3.73-1.51-4.45-5.92-4.82-9.44-.59-4.6-.28-9.62,1.99-13.81,.42-.97,1.24-2.05,1.72-2.97l1.67-2.89c3.31-5.83,6.49-11.93,10.49-17.42,5.58-7.29,11.48-14.94,20.13-18.9,1.95-.9,4.1-1.66,6.27-1.9,2.91-.27,5.93,.3,8.47,1.49,6.62,2.99,11.02,8.81,15.33,14.34,4.14,5.18,8.09,10.57,12.63,15.36,7.58,7.56,18.17,11.71,28.88,12.18,2.22,.16,2.44,3.28,2.06,4.87-1.91,7.19-10.43,6.35-15.98,4.76-2.33-.73-4.32-1.85-6.72-2.16-2.35-.22-4.86-.05-7.32-.58-1.81-.24-2.95-2.82-3.08-4.31-.26-1.96-.09-3.67-.59-4.98-1.01-3.01-4.43-4.37-7.34-5.32-3.35-1.03-6.98-1.7-10.13-3.34-3.23-1.63-6.21-3.84-8.42-6.73-2.27-2.83-3.45-6.56-3.07-10.14,.01-.14,.14-.24,.28-.22,.13,.01,.23,.13,.22,.26h0Z"/></g></svg>