<?xml version="1.0" encoding="UTF-8"?><svg id="_層_2" xmlns="http://www.w3.org/2000/svg" viewBox="0 0 44.33 112.88"><g id="_層_1-2"><path d="M25.07,112.05c1.12,.56,2.79,.13,3.84-.43,.31-.22,.54-.36,.54-.63-.01,.01,0,.06,0,.07-.62-.54-1.43-.79-2.23-1.24-2.02-1.11-2.58-3.58-1.54-5.56,1.37-3.64,2.71-7.45,3.33-11.25,.52-2.67,.09-5.48,.58-8.67,1.33-5.76,2.62-11.17,3.48-17.03,.49-3.68,1.97-10.08-.73-12.78-.22-.14-.37-.17-.75-.12-2.59,.67-5.21,1.69-7.63,2.89-5.1,2.49-9.82,5.91-14.63,8.95-3.69,2.31-10.63,7.38-4.2,10.63,2.5,1.36,5.21,1.91,8.02,2.66,2.86,.9,5.67,2.28,7.76,4.58,.55,.54,1,1.33,1.23,2.07,.45,1.27,1.01,2.88,1.4,4.16l.32,1.05,.15,.53,.07,.28,.04,.15,.02,.1v.08c.05-.25,.08,.58-.48,.71l.27-1.09s.08,.05,.06,.04c-.02,0-.11,0-.15,.02-.04,.03,.07-.08,.13-.23,.65-1.6,.41-3.45,.93-5.12,.03-.14,.04-.18,.03-.29-.04-1.28,.51-2.41,.64-3.62,.6-3.45,.56-7,.58-10.56,.14-6.18,.28-15.12,.17-21.38,.15-3.24-1.83-6.08-3.94-8.82-2.2-2.69-4.54-5.53-6.61-8.5-2.08-2.94-3.95-6.19-5.61-9.41-1.37-2.56-2.17-6.45-.64-9.35,.64-1.21,2.06-1.82,3.21-2.26,1.76-.65,3.3-1.18,4.72-1.95,1.91-1.09,3.8-2.47,4.8-4.4C23.18,4.2,22.96-.27,26.39,.01c1.33,.2,1.97,1.52,2.2,2.51,.4,1.44,.6,3.65,.81,4.69,.65,1.62,1.75,3.04,3.48,3.52l5.02,1.45c1.16,.41,2.29,.33,3.55,.83,3.53,1.72,3.44,6.57,1.76,9.49-2.29,4.82-4.52,10.06-7.72,14.43-2.97,3.99-10.36,14.47-16.3,11.28-1.38-.78-2.85-2.56-1.9-4.31l-.17,.5c.54-2.22,1.49-4.05,2.52-6.01,2.85-5.27,7.11-9.73,8.75-15.56,.95-2.94,1.23-6.93-2.64-7.03-3.93-.27-3.88,4.6-2.79,7.28,.28,.85,.5,1.77,.97,2.52,.02,.02,0,0-.05,0-.09,.01-.1,.05-.11,.06,.3-.37,.61,.28,.11,.35-.21-.03-.29-.15-.38-.27-1-1.71-1.64-3.45-2.14-5.4-.25-2.2,.38-4.86,2.72-5.73,2.24-.74,5.13-.1,6.25,2.19,.98,2.16,.6,4.43,.11,6.59-1.7,7.51-7.38,13.18-9.75,20.38-.23,.66-.29,1.16-.5,1.7,.12-.17,.13-.49,.09-.59-.04-.12-.04-.08,.02-.03,.2,.22,.72,.6,1.06,.57,1.66-.2,3.2-1.6,4.48-2.73,2.4-2.28,4.45-5.1,6.42-8,2.83-4.06,5.06-9.36,7.14-13.95,.71-1.48,.91-2.15,.47-3.48-.12-.34-.25-.41-.09-.29,0,0-.09-.03-.24-.06l-1.27-.22c-1.01-.16-5.63-1.6-6.7-1.88-2.84-.78-5.13-3.32-6.1-6.04-.56-1.79-.44-3.77-.96-5.48,.48,.94,2.14,1.13,2.77,.27,.05-.07,.04-.07,.03-.05-.02,.04-.07,.16-.11,.29l-.33,1.23c-.37,1.34-.77,3.22-1.79,4.44-1.6,1.99-3.59,3.59-5.8,4.72-2.11,1.12-4.25,1.62-6.21,2.48-.23,.11-.42,.31-.23,.07-1.28,2.57,.36,5.8,1.72,8.38,2.7,5.57,6.42,10.46,10.12,15.42,2.15,3.01,4.34,6.64,3.99,10.55-.14,6.27-.74,15.23-1.04,21.37-.12,4.41-.2,9.05-1.38,13.39-.16,.54,.01,.84-.12,1.32-.55,1.74-.28,3.61-1,5.36-.12,.25-.24,.54-.66,.81-.41,.25-1,.09-1.31-.2l.27-1.09c-.56,.11-.52,.9-.49,.65-.27-1.09-.92-2.89-1.27-3.98-.5-1.26-.76-2.66-1.76-3.61-4.08-4.47-10.59-3.77-15.76-6.26-8.71-4.29-1.79-11.64,3.49-15.1,4.81-3.41,9.43-6.97,14.76-9.61,2.78-1.36,5.56-2.52,8.62-3.21,2.18-.54,4.47,1.18,5.3,3.09,1.95,4.56,.81,9.46,.03,13.94-.99,5.61-2.47,11.45-4.04,16.92-.54,2.52-.22,5.61-.97,8.63-.82,3.64-2.17,7.09-3.7,10.42l-.46,.99c-.15,.33-.33,.68-.42,.92-.41,1.08,.14,2.4,1.1,3.02,.58,.37,1.23,.69,1.88,1.17,.45,.25,.88,.9,.61,1.44-.73,1.6-4.38,1.85-5.53,.92-.2-.19,.1-.48,.28-.28h0Z"/></g></svg>